-
http:// www. Speed. Cd       
http:// www. Speed. Cd       the fast  and The Hottest Private Tracker on the net

Please Seed back to make the speed Faster!!!

and don't forget to visit      ...... www. Speed. Cd..........
-[img]http://img541.imageshack.us/img541/6563/primal.jpg[/img]

[color=blue][size=5][b]Primal 2010 BDRip XVID AC3 HQ Hive-CM8[/b][/size][/color]


[b]Thx Hive

CM8 Doing It Right The First Time :D

Why download a touched up rip of a rip BRrip
Get the real deal BDRip
Enjoy

Source Bluray

Video: 720x400 @bitrate 1800 2pass
Audio: English AC3 5.1 @448
Sample: yes included
Subs: yes english in srt /subs[/b]


[url]http://www.imdb.com/title/tt1438534/[/url]


General
Complete name                    : Primal.2010.BDRip.XVID.AC3.HQ.Hive-CM8.avi
Format                           : AVI
Format/Info                      : Audio Video Interleave
File size                        : 1.27 GiB
Duration                         : 1h 20mn
Overall bit rate                 : 2 256 Kbps
Writing application              : Nandub v1.0rc2
Writing library                  : Nandub build 1853/release

Video
ID                               : 0
Format                           : MPEG-4 Visual
Format profile                   : Advanced Simple@L5
Format settings, BVOP            : Yes
Format settings, QPel            : Yes
Format settings, GMC             : No warppoints
Format settings, Matrix          : Default (H.263)
Muxing mode                      : Packed bitstream
Codec ID                         : XVID
Codec ID/Hint                    : XviD
Duration                         : 1h 20mn
Bit rate                         : 1 798 Kbps
Width                            : 720 pixels
Height                           : 400 pixels
Display aspect ratio             : 16:9
Frame rate                       : 25.000 fps
Color space                      : YUV
Chroma subsampling               : 4:2:0
Bit depth                        : 8 bits
Scan type                        : Progressive
Bits/(Pixel*Frame)               : 0.250
Stream size                      : 1.01 GiB (80%)
Writing library                  : XviD 1.2.1 (UTC 2008-12-04)

Audio
ID                               : 1
Format                           : AC-3
Format/Info                      : Audio Coding 3
Mode extension                   : CM (complete main)
Codec ID                         : 2000
Duration                         : 1h 20mn
Bit rate mode                    : Constant
Bit rate                         : 448 Kbps
Channel(s)                       : 6 channels
Channel positions                : Front: L C R, Side: L R, LFE
Sampling rate                    : 48.0 KHz
Bit depth                        : 16 bits
Stream size                      : 259 MiB (20%)
Alignment                        : Split accross interleaves
Interleave, duration             : 40 ms (1.00 video frame)
Interleave, preload duration     : 500 ms




Krew Boylan	... 	Mel
Lindsay Farris	... 	Chad
Rebekah Foord	... 	Kris
Damien Freeleagus ... 	Warren
Stephen Shanahan ... 	Squatter
Wil Traval	... 	Dace
Zoe Tuckwell-Smith ... 	Anja
Ch'aska Cuba de Reed	... 	Squatter's daughter
Santiago Cuba de Reed	... 	Squatter's son


Anja and five friends join anthropology student Dace on a journey to study 
a remote ancient rock painting. Their excitement vanishes when Mel becomes 
delirious after skinny-dipping in the waterhole. Feverish bleeding confused 
she physically and mentally regresses to a vicious predatory state. Mel has gone primal.



[img]http://img560.imageshack.us/img560/3492/prprpr.png[/img]
[img]http://img846.imageshack.us/img846/517/96966924.png[/img]
[img]http://img97.imageshack.us/img97/272/prprf.png[/img]
[img]http://img42.imageshack.us/img42/3292/prprpprprprr.png[/img]
[img]http://img852.imageshack.us/img852/7636/prprpprprr.png[/img]
[img]http://img64.imageshack.us/img64/5296/prprpprr.png[/img]





Greetz

iNK,LUSi,,MAGNET,CLASSiFiED,THC,LEGi0N,T0XiC,IMAGiNE,ViSiON,WBZ,FLAWL3SS,NOVA
Vik,Rapeseed,D2U,SAFC,goldadvance,MEMORY100,KaN1vE,Unevano,Pinnz,Wayne,Mr Hive
and all P2P groups 
Great Work Guys :D

CM8@hushmail.com